<!DOCTYPE svg PUBLIC "-//W3C//DTD SVG 1.1//EN" "http://www.w3.org/Graphics/SVG/1.1/DTD/svg11.dtd">
<!-- Uploaded to: SVG Repo, www.svgrepo.com, Transformed by: SVG Repo Mixer Tools -->
<svg width="800px" height="800px" viewBox="0 0 1024 1024" fill="#0433ff" class="icon" version="1.1" xmlns="http://www.w3.org/2000/svg">
<g id="SVGRepo_bgCarrier" stroke-width="0"/>
<g id="SVGRepo_tracerCarrier" stroke-linecap="round" stroke-linejoin="round"/>
<g id="SVGRepo_iconCarrier">
<path d="M839.774 703.942c-35.286 0-63.98-28.696-63.98-63.98s28.696-63.98 63.98-63.98c35.288 0 63.98 28.696 63.98 63.98s-28.694 63.98-63.98 63.98z m0-111.966c-26.46 0-47.984 21.524-47.984 47.984s21.524 47.984 47.984 47.984 47.986-21.524 47.986-47.984-21.526-47.984-47.986-47.984z" fill=""/>
<path d="M943.742 647.944a7.994 7.994 0 0 1-7.998-7.998c0-52.906-43.048-95.956-95.97-95.956a7.994 7.994 0 0 1-7.998-7.998 7.992 7.992 0 0 1 7.998-7.996c61.732 0 111.966 50.218 111.966 111.95a7.994 7.994 0 0 1-7.998 7.998zM839.774 751.926c-61.73 0-111.964-50.234-111.964-111.964a7.994 7.994 0 0 1 7.998-7.998 7.992 7.992 0 0 1 7.996 7.998c0 52.922 43.05 95.97 95.97 95.97a7.994 7.994 0 0 1 7.998 7.998 7.992 7.992 0 0 1-7.998 7.996zM840.258 647.958c-4.42 0-8.076-3.578-8.076-7.998s3.5-7.998 7.904-7.998h0.172c4.404 0 7.998 3.578 7.998 7.998s-3.594 7.998-7.998 7.998zM616.326 456.018c-4.42 0-8.074-3.578-8.074-7.998s3.498-7.998 7.902-7.998h0.172a8.004 8.004 0 0 1 7.998 7.998 8.004 8.004 0 0 1-7.998 7.998zM839.774 408.032a7.994 7.994 0 0 1-7.998-7.998v-175.948c0-4.42 3.578-7.998 7.998-7.998s7.998 3.578 7.998 7.998v175.948a7.994 7.994 0 0 1-7.998 7.998zM40.494 224.088c-4.412 0-8.074-3.576-8.074-7.998s3.498-7.998 7.92-7.998h0.154c4.422 0 7.998 3.576 7.998 7.998s-3.576 7.998-7.998 7.998zM72.484 224.088c-4.412 0-8.074-3.576-8.074-7.998s3.498-7.998 7.918-7.998h0.156c4.422 0 7.998 3.576 7.998 7.998s-3.576 7.998-7.998 7.998zM104.474 224.088c-4.412 0-8.074-3.576-8.074-7.998s3.498-7.998 7.918-7.998h0.156c4.422 0 7.998 3.576 7.998 7.998s-3.576 7.998-7.998 7.998z" fill=""/>
<path d="M839.774 240.084H8.03a7.994 7.994 0 0 1-7.998-7.998v-15.996c0-13.23 10.762-23.994 23.992-23.994H823.78c13.23 0 23.992 10.762 23.992 23.994v15.996a7.994 7.994 0 0 1-7.998 7.998zM16.026 224.088h815.75v-7.998c0-4.342-3.654-7.998-7.996-7.998H24.024a8.008 8.008 0 0 0-7.998 7.998v7.998z" fill=""/>
<path d="M8.03 831.902a7.994 7.994 0 0 1-7.998-7.998V232.086a7.994 7.994 0 0 1 7.998-7.998 7.992 7.992 0 0 1 7.996 7.998v591.818a7.992 7.992 0 0 1-7.996 7.998z" fill=""/>
<path d="M759.798 831.902H8.03c-4.422 0-7.998-3.578-7.998-7.998s3.576-7.998 7.998-7.998H759.8c4.42 0 7.996 3.578 7.996 7.998s-3.578 7.998-7.998 7.998z" fill=""/>
<path d="M40.02 831.902a7.994 7.994 0 0 1-7.998-7.998V232.086a7.994 7.994 0 0 1 7.998-7.998 7.992 7.992 0 0 1 7.996 7.998v591.818a7.992 7.992 0 0 1-7.996 7.998z" fill=""/>
<path d="M24.024 304.064H8.03c-4.422 0-7.998-3.578-7.998-7.998s3.576-7.998 7.998-7.998h15.994c4.42 0 7.998 3.578 7.998 7.998s-3.578 7.998-7.998 7.998zM24.024 352.048H8.03c-4.422 0-7.998-3.576-7.998-7.998s3.576-7.998 7.998-7.998h15.994c4.42 0 7.998 3.576 7.998 7.998s-3.578 7.998-7.998 7.998zM24.024 400.036H8.03a7.994 7.994 0 0 1-7.998-7.998 7.994 7.994 0 0 1 7.998-7.998h15.994a7.994 7.994 0 0 1 7.998 7.998 7.994 7.994 0 0 1-7.998 7.998zM24.024 448.02H8.03a7.992 7.992 0 0 1-7.998-7.998 7.994 7.994 0 0 1 7.998-7.998h15.994a7.994 7.994 0 0 1 7.998 7.998 7.994 7.994 0 0 1-7.998 7.998zM24.024 496.004H8.03a7.994 7.994 0 0 1-7.998-7.998 7.994 7.994 0 0 1 7.998-7.998h15.994a7.994 7.994 0 0 1 7.998 7.998 7.994 7.994 0 0 1-7.998 7.998zM24.024 543.99H8.03a7.992 7.992 0 0 1-7.998-7.998 7.992 7.992 0 0 1 7.998-7.996h15.994a7.992 7.992 0 0 1 7.998 7.996 7.994 7.994 0 0 1-7.998 7.998zM24.024 591.976H8.03c-4.422 0-7.998-3.578-7.998-7.998s3.576-7.998 7.998-7.998h15.994c4.42 0 7.998 3.578 7.998 7.998s-3.578 7.998-7.998 7.998zM24.024 639.96H8.03c-4.422 0-7.998-3.578-7.998-7.998s3.576-7.998 7.998-7.998h15.994c4.42 0 7.998 3.578 7.998 7.998s-3.578 7.998-7.998 7.998zM24.024 687.946H8.03a7.992 7.992 0 0 1-7.998-7.996 7.992 7.992 0 0 1 7.998-7.998h15.994a7.994 7.994 0 0 1 7.998 7.998 7.992 7.992 0 0 1-7.998 7.996zM24.024 735.932H8.03a7.992 7.992 0 0 1-7.998-7.998 7.992 7.992 0 0 1 7.998-7.996h15.994a7.992 7.992 0 0 1 7.998 7.996 7.994 7.994 0 0 1-7.998 7.998zM24.024 783.916H8.03a7.992 7.992 0 0 1-7.998-7.998 7.992 7.992 0 0 1 7.998-7.996h15.994a7.992 7.992 0 0 1 7.998 7.996 7.994 7.994 0 0 1-7.998 7.998zM151.984 304.064h-63.98c-4.42 0-7.998-3.578-7.998-7.998s3.578-7.998 7.998-7.998h63.98c4.42 0 7.998 3.578 7.998 7.998s-3.578 7.998-7.998 7.998zM487.88 352.048H215.964c-4.42 0-7.998-3.576-7.998-7.998s3.578-7.998 7.998-7.998H487.88c4.422 0 7.998 3.576 7.998 7.998s-3.576 7.998-7.998 7.998zM183.974 352.048H104c-4.422 0-7.998-3.576-7.998-7.998s3.576-7.998 7.998-7.998h79.974c4.42 0 7.998 3.576 7.998 7.998s-3.578 7.998-7.998 7.998zM455.89 400.036h-47.984a7.994 7.994 0 0 1-7.998-7.998 7.994 7.994 0 0 1 7.998-7.998h47.984a7.994 7.994 0 0 1 7.998 7.998 7.994 7.994 0 0 1-7.998 7.998zM375.916 400.036H119.994a7.994 7.994 0 0 1-7.998-7.998 7.994 7.994 0 0 1 7.998-7.998h255.922a7.994 7.994 0 0 1 7.998 7.998 7.994 7.994 0 0 1-7.998 7.998zM167.978 496.004H119.994a7.994 7.994 0 0 1-7.998-7.998 7.994 7.994 0 0 1 7.998-7.998h47.984a7.994 7.994 0 0 1 7.998 7.998 7.992 7.992 0 0 1-7.998 7.998zM437.396 496.004H199.968a7.992 7.992 0 0 1-7.996-7.998 7.992 7.992 0 0 1 7.996-7.998h237.428a7.994 7.994 0 0 1 7.998 7.998 7.994 7.994 0 0 1-7.998 7.998zM167.978 687.946H119.994a7.992 7.992 0 0 1-7.998-7.996 7.994 7.994 0 0 1 7.998-7.998h47.984a7.992 7.992 0 0 1 7.998 7.998 7.992 7.992 0 0 1-7.998 7.996zM421.402 687.946H199.968a7.99 7.99 0 0 1-7.996-7.996 7.992 7.992 0 0 1 7.996-7.998h221.434a7.992 7.992 0 0 1 7.996 7.998 7.99 7.99 0 0 1-7.996 7.996zM343.926 448.02H135.988a7.992 7.992 0 0 1-7.996-7.998 7.992 7.992 0 0 1 7.996-7.998h207.938a7.994 7.994 0 0 1 7.998 7.998 7.994 7.994 0 0 1-7.998 7.998zM487.88 543.99h-159.952a7.992 7.992 0 0 1-7.996-7.998 7.99 7.99 0 0 1 7.996-7.996h159.952a7.992 7.992 0 0 1 7.998 7.996 7.992 7.992 0 0 1-7.998 7.998zM359.92 591.976H104c-4.422 0-7.998-3.578-7.998-7.998s3.576-7.998 7.998-7.998h255.92c4.422 0 7.998 3.578 7.998 7.998s-3.576 7.998-7.998 7.998zM279.946 735.932H104a7.992 7.992 0 0 1-7.998-7.998A7.992 7.992 0 0 1 104 719.938h175.946a7.992 7.992 0 0 1 7.998 7.996 7.994 7.994 0 0 1-7.998 7.998zM551.862 639.96H311.936c-4.42 0-7.998-3.578-7.998-7.998s3.578-7.998 7.998-7.998h239.926c4.422 0 7.998 3.578 7.998 7.998s-3.576 7.998-7.998 7.998zM279.946 639.96H119.994c-4.42 0-7.998-3.578-7.998-7.998s3.578-7.998 7.998-7.998h159.952c4.42 0 7.998 3.578 7.998 7.998s-3.578 7.998-7.998 7.998zM151.984 783.916h-63.98a7.994 7.994 0 0 1-7.998-7.998 7.992 7.992 0 0 1 7.998-7.996h63.98a7.992 7.992 0 0 1 7.998 7.996 7.994 7.994 0 0 1-7.998 7.998zM519.872 591.976h-127.96c-4.42 0-7.996-3.578-7.996-7.998s3.576-7.998 7.996-7.998h127.96c4.422 0 7.998 3.578 7.998 7.998s-3.578 7.998-7.998 7.998zM295.94 543.99H119.994a7.994 7.994 0 0 1-7.998-7.998 7.992 7.992 0 0 1 7.998-7.996h175.946a7.992 7.992 0 0 1 7.998 7.996 7.992 7.992 0 0 1-7.998 7.998z" fill=""/>
<path d="M871.764 831.902h-63.98a7.994 7.994 0 0 1-7.998-7.998v-37.426c-25.242-6.874-48.14-20.12-66.822-38.66l-33.38 19.26c-3.842 2.204-8.732 0.906-10.918-2.922l-31.99-55.42a7.976 7.976 0 0 1 2.922-10.918l33.208-19.182a152.712 152.712 0 0 1-0.016-77.32l-33.208-19.182a7.976 7.976 0 0 1-2.922-10.918l32.006-55.452a7.964 7.964 0 0 1 4.842-3.734c2.078-0.532 4.234-0.266 6.076 0.812l33.366 19.26c18.698-18.542 41.596-31.788 66.838-38.66v-37.426a7.994 7.994 0 0 1 7.998-7.998h63.98a7.994 7.994 0 0 1 7.998 7.998v37.426c25.242 6.874 48.14 20.12 66.838 38.66l33.366-19.26a8.004 8.004 0 0 1 6.076-0.812 7.97 7.97 0 0 1 4.842 3.734l31.99 55.42a7.976 7.976 0 0 1-2.92 10.918l-33.208 19.182c3.312 12.606 4.982 25.586 4.982 38.676s-1.67 26.07-4.982 38.66l33.224 19.198a8 8 0 0 1 3.732 4.858 7.992 7.992 0 0 1-0.812 6.06l-32.006 55.42a7.954 7.954 0 0 1-10.918 2.922l-33.38-19.26c-18.682 18.542-41.58 31.788-66.822 38.66v37.426a8 8 0 0 1-8.002 7.998z m-55.982-15.996h47.984v-35.676a7.988 7.988 0 0 1 6.216-7.794c26.632-6.06 50.61-19.932 69.34-40.096a7.916 7.916 0 0 1 9.856-1.484l31.866 18.384 24.008-41.582-31.708-18.306a7.974 7.974 0 0 1-3.638-9.278c3.998-12.98 6.03-26.476 6.03-40.114s-2.032-27.132-6.03-40.128a7.974 7.974 0 0 1 3.638-9.278l31.694-18.292-23.992-41.58-31.85 18.384a7.936 7.936 0 0 1-9.856-1.484c-18.746-20.164-42.722-34.036-69.356-40.096a7.99 7.99 0 0 1-6.216-7.794v-35.676h-47.984v35.676a7.988 7.988 0 0 1-6.216 7.794c-26.632 6.06-50.61 19.932-69.354 40.096a7.936 7.936 0 0 1-9.858 1.484l-31.85-18.384-24.008 41.612 31.694 18.292a7.954 7.954 0 0 1 3.64 9.262 136.832 136.832 0 0 0-6.016 40.114 136.262 136.262 0 0 0 6.032 40.128 7.976 7.976 0 0 1-3.64 9.278l-31.694 18.292 23.992 41.582 31.866-18.384c3.218-1.906 7.326-1.266 9.858 1.484 18.728 20.164 42.706 34.036 69.338 40.096a7.988 7.988 0 0 1 6.216 7.794v35.674z" fill=""/>
<path d="M615.452 547.208c-1.39 0-2.764-0.36-3.998-1.076a7.966 7.966 0 0 1-3.732-4.842l-3.876-14.512a78.296 78.296 0 0 1-16.978-4.516l-10.592 10.592a7.994 7.994 0 0 1-11.308 0l-33.942-33.928a7.99 7.99 0 0 1 0-11.308l10.606-10.606a79.054 79.054 0 0 1-4.532-16.98l-14.502-3.874a8.016 8.016 0 0 1-5.654-9.81l12.41-46.344c1.156-4.234 5.498-6.716 9.792-5.656l14.278 3.828a74.212 74.212 0 0 1 5.858-6.686c2.062-2.046 4.28-4 6.716-5.904l-3.81-14.246a7.964 7.964 0 0 1 0.794-6.076 8.024 8.024 0 0 1 4.844-3.732l46.344-12.434c2.094-0.516 4.234-0.266 6.078 0.812a7.962 7.962 0 0 1 3.732 4.858l3.888 14.51a79.806 79.806 0 0 1 16.98 4.514l10.59-10.59c3-3 8.31-3 11.308 0l33.928 33.926a7.99 7.99 0 0 1 0 11.308l-10.592 10.608a80.056 80.056 0 0 1 4.516 16.962l14.496 3.874a8.02 8.02 0 0 1 5.654 9.81l-12.418 46.33a7.97 7.97 0 0 1-3.734 4.842 8.022 8.022 0 0 1-6.076 0.812l-14.214-3.828a70.254 70.254 0 0 1-5.904 6.732 71.94 71.94 0 0 1-6.702 5.888l3.828 14.23a8.012 8.012 0 0 1-5.654 9.808l-46.346 12.434a8.402 8.402 0 0 1-2.076 0.27z m-30.412-42.424c1.156 0 2.328 0.25 3.436 0.766a63.18 63.18 0 0 0 22.306 5.936 8.006 8.006 0 0 1 7.108 5.888l3.218 12.042 30.894-8.292-3.17-11.794a8.026 8.026 0 0 1 3.17-8.654c3.734-2.578 6.624-4.936 9.092-7.404 2.5-2.5 4.842-5.388 7.42-9.106 1.922-2.796 5.358-4.014 8.654-3.186l11.778 3.17 8.28-30.882-12.03-3.216a8 8 0 0 1-5.888-7.092 63.394 63.394 0 0 0-5.952-22.306 8.032 8.032 0 0 1 1.578-9.09l8.78-8.78-22.62-22.618-8.78 8.778c-2.388 2.39-6.042 3.046-9.09 1.562-6.952-3.31-14.464-5.31-22.32-5.936a7.986 7.986 0 0 1-7.094-5.904l-3.216-12.042-30.896 8.294 3.172 11.826a7.974 7.974 0 0 1-3.218 8.684c-3.532 2.406-6.498 4.828-9.06 7.374-2.498 2.516-4.842 5.388-7.358 9.044-1.92 2.78-5.374 4.03-8.652 3.202l-11.84-3.17-8.28 30.896 12.042 3.218a8 8 0 0 1 5.888 7.09 63.388 63.388 0 0 0 5.952 22.322 8.032 8.032 0 0 1-1.576 9.09l-8.78 8.778 22.632 22.62 8.764-8.764a7.996 7.996 0 0 1 5.656-2.344z" fill=""/>
<path d="M615.842 488.008c-22.054 0-39.988-17.932-39.988-39.988s17.934-39.988 39.988-39.988c22.056 0 39.988 17.932 39.988 39.988s-17.932 39.988-39.988 39.988z m0-63.98c-13.23 0-23.992 10.762-23.992 23.992s10.762 23.992 23.992 23.992 23.992-10.762 23.992-23.992-10.762-23.992-23.992-23.992z" fill=""/>
</g>
</svg>